<svg xmlns="http://www.w3.org/2000/svg" viewBox="0 0 48 48"><defs><style>.cls-1{fill:#374f68;}.cls-2{fill:#425b72;}.cls-3{fill:#dad7e5;}.cls-4{fill:#edebf2;}</style></defs><title>ink</title><g id="ink"><path class="cls-1" d="M40.37,47H7.63a6,6,0,0,1-6-6.6c1.71-17,1-9.86,2.16-21.59.35-3.57,4.77-2.26,5.43-4.8L10,11H38c.67,2.68.68,3.87,2,4.38,2.08.83,4,1.21,4.23,3.43,1.17,11.64.54,5.35,2.16,21.59A6,6,0,0,1,40.37,47Z"/><path class="cls-2" d="M45.48,44.13c-2,1.23-.71.87-35.85.87a6,6,0,0,1-6-6.6C6,15.24,5.81,16.6,6,16.22c3.51-1.4,2.93-.7,4.05-5.22H38c.67,2.68.68,3.87,2,4.38,2.08.83,4,1.21,4.23,3.43C46.49,41.87,46.89,41.88,45.48,44.13Z"/><rect class="cls-3" x="12" y="23" width="24" height="16" rx="2"/><path class="cls-4" d="M36,25V37H18a4,4,0,0,1-4-4V23H34A2,2,0,0,1,36,25Z"/><polygon class="cls-3" points="12 27 12 35 2.2 35 3 27 12 27"/><path class="cls-4" d="M12,27v6H10.23A5.46,5.46,0,0,1,4.8,27Z"/><path class="cls-3" d="M45.8,35H36V27h9C45.24,29.42,45.56,32.6,45.8,35Z"/><path class="cls-4" d="M45.6,33H44a6,6,0,0,1-6-6h7Z"/><rect class="cls-3" x="7" y="1" width="34" height="10" rx="2"/><path class="cls-4" d="M41,3V9H17A8,8,0,0,1,9,1H39A2,2,0,0,1,41,3Z"/><path class="cls-2" d="M24,36c-.81,0-.77-.3-3-4.76V35a1,1,0,0,1-2,0V27a1,1,0,0,1,1.89-.45L23,30.76V27a1,1,0,0,1,2,0v8A1,1,0,0,1,24,36Z"/><path class="cls-2" d="M27,35V27a1,1,0,0,1,2,0v8A1,1,0,0,1,27,35Z"/><path class="cls-2" d="M28,34a1,1,0,0,1-.83-1.55l4-6a1,1,0,0,1,1.66,1.1C28.48,34.08,28.72,34,28,34Z"/><path class="cls-2" d="M32,36c-.91,0-.83-.36-2.89-5.69A1,1,0,0,1,31,29.59l2,5.05A1,1,0,0,1,32,36Z"/><path class="cls-2" d="M15,35V27a1,1,0,0,1,2,0v8A1,1,0,0,1,15,35Z"/><path d="M47.33,40.3,45.18,18.71a4,4,0,0,0-2.5-3.32C39.39,14.08,40,14.74,39.27,12A3,3,0,0,0,42,9V3a3,3,0,0,0-3-3H9A3,3,0,0,0,6,3V9a3,3,0,0,0,2.73,3c-.48,1.92-.46,2.24-1.05,2.48-2.26.9-4.57,1.44-4.86,4.26L.67,40.3a7,7,0,0,0,7,7.7H40.37A7,7,0,0,0,47.33,40.3ZM3.91,28H11v6H3.31ZM13,25a1,1,0,0,1,1-1H34a1,1,0,0,1,1,1V37a1,1,0,0,1-1,1H14a1,1,0,0,1-1-1Zm24,3h7.09l.6,6H37ZM8,9V3A1,1,0,0,1,9,2H39a1,1,0,0,1,1,1V9a1,1,0,0,1-1,1H9A1,1,0,0,1,8,9ZM6.06,17.25c4.18-1.66,3.75-1.37,4.72-5.25H37.22c.48,1.91.58,3.6,2.36,4.31C43.91,18,43,16.76,43.89,26H37V25a3,3,0,0,0-3-3H14a3,3,0,0,0-3,3v1H4.11l.7-7.09A2,2,0,0,1,6.06,17.25Zm38,27.11A4.91,4.91,0,0,1,40.37,46H7.63a5,5,0,0,1-5-5.5L3.11,36H11v1a3,3,0,0,0,3,3H34a3,3,0,0,0,3-3V36h7.89C45.32,40.25,46,42.28,44.07,44.36Z"/><path d="M21,35V31.24C23.27,35.77,23.19,36,24,36a1,1,0,0,0,1-1V27a1,1,0,0,0-2,0v3.76l-2.11-4.21A1,1,0,0,0,19,27v8A1,1,0,0,0,21,35Z"/><path d="M29,35c0-2-.21-1.39.8-2.9l1.27,3.26a1,1,0,0,0,1.86-.72l-1.77-4.57,1.67-2.52a1,1,0,0,0-1.66-1.1L29,29.7V27a1,1,0,0,0-2,0v8A1,1,0,0,0,29,35Z"/><path d="M17,35V27a1,1,0,0,0-2,0v8A1,1,0,0,0,17,35Z"/></g></svg>