<svg xmlns="http://www.w3.org/2000/svg" viewBox="0 0 48 48"><defs><style>.cls-1{fill:#dad7e5;}.cls-2{fill:#edebf2;}.cls-3{fill:#7c7d7d;}.cls-4{fill:#919191;}</style></defs><title>compass</title><g id="compass"><path class="cls-1" d="M25,3V6.41H21V3a2,2,0,0,1,4,0Z"/><path class="cls-2" d="M25,3V4.41a2,2,0,0,1-2-2V1A2,2,0,0,1,25,3Z"/><path class="cls-3" d="M28,11v5H18V11a5,5,0,0,1,10,0Z"/><path class="cls-4" d="M28,11v3H25a5,5,0,0,1-5-5,4.93,4.93,0,0,1,.62-2.4A5,5,0,0,1,28,11Z"/><path class="cls-1" d="M23,9a2,2,0,1,0,1.83,2.82A2,2,0,0,0,23,9Z"/><path class="cls-2" d="M22.15,9.18a2,2,0,0,0,2.65,2.64A2,2,0,0,0,22.15,9.18Z"/><path class="cls-1" d="M32.08,43.94a5.14,5.14,0,0,0,2.62-6.09L28,16H24l8.11,27.94"/><path class="cls-2" d="M24,16l7.52,25.9a5.14,5.14,0,0,0,1.21-5L26.28,16Z"/><path class="cls-4" d="M37,27H18.07a1,1,0,0,1,0-2H37A1,1,0,0,1,37,27Z"/><path class="cls-4" d="M34,27V25a1,1,0,0,1,2,0v2A1,1,0,0,1,34,27Z"/><path class="cls-1" d="M22,16c-8.47,29.17-7.26,25-8.11,27.94a5.13,5.13,0,0,1-2.62-6.09L18,16Z"/><path class="cls-2" d="M22,16,14.45,41.9a5.14,5.14,0,0,1-1.21-5L19.66,16Z"/><path class="cls-3" d="M18,33a3,3,0,1,1-3.87-2.87A3,3,0,0,1,18,33Z"/><path class="cls-4" d="M17.85,33.86a3,3,0,0,1-3.75-3.73A3,3,0,0,1,17.85,33.86Z"/><path class="cls-2" d="M15,34a1,1,0,1,1,1-.8A1,1,0,0,1,15,34Z"/><circle cx="22.97" cy="11" r="2"/><path d="M14.42,33.83a1,1,0,1,0,0-1.66A1,1,0,0,0,14.42,33.83Z"/><path d="M37,25H36a1,1,0,0,0-2,0H31.79C28.41,14,29,17.11,29,11a6,6,0,0,0-3-5.19V3a3,3,0,0,0-6,0V5.81A6,6,0,0,0,17,11v4.85L12.72,29.7a4,4,0,0,0-1.47,4.74l-.95,3.11a6.09,6.09,0,0,0,2.39,6.84L12,46.72a1,1,0,0,0,1.92.56L17.1,36.37a3.94,3.94,0,0,0,1.47-5.08L19.82,27h6.31C32.57,49.19,32,48,33,48a1,1,0,0,0,1-1.28l-.67-2.31a6.12,6.12,0,0,0,2.39-6.86L32.4,27H34a1,1,0,0,0,2,0h1A1,1,0,0,0,37,25ZM29.7,25H27.63l-2.32-8h1.93ZM22,3a1,1,0,0,1,1.72-.69c.38.37.28.63.28,2.78a5.6,5.6,0,0,0-2,0Zm-3,8a4,4,0,0,1,8,0v4H19ZM17,29.57A3.8,3.8,0,0,0,15,29l3.69-12h1.93ZM13,33a2,2,0,1,1,2,2A2,2,0,0,1,13,33Zm-.2,3.33a4,4,0,0,0,2.07.66l-1.55,5.32C11.27,40.37,12.17,38.28,12.77,36.33ZM20.4,25l2.32-8h.5l2.33,8ZM33.74,38.14a4.12,4.12,0,0,1-1.08,4.19L28.21,27h2.1Z"/></g></svg>