<svg xmlns="http://www.w3.org/2000/svg" viewBox="0 0 48 48"><defs><style>.cls-1{fill:#dad7e5;}.cls-2{fill:#edebf2;}.cls-3{fill:#c6c3d8;}</style></defs><title>papers</title><g id="papers"><polygon class="cls-1" points="37 43 41 43 41 1 11 1 11 5 37 43"/><path class="cls-2" d="M41,1c0,41.23-.1,40,0,40a2,2,0,0,1-2-2V12.17L29.83,3H15a2,2,0,0,1-2-2Z"/><polygon class="cls-1" points="37 13 37 47 7 47 7 5 29 5 37 13"/><path class="cls-2" d="M37,13V45H15a6,6,0,0,1-6-6V5H29Z"/><polygon class="cls-3" points="37 13 29 13 29 5 37 13"/><path class="cls-3" d="M32,24H12a1,1,0,0,1,0-2H32A1,1,0,0,1,32,24Z"/><path class="cls-3" d="M32,19H12a1,1,0,0,1,0-2H32A1,1,0,0,1,32,19Z"/><path class="cls-3" d="M32,29H12a1,1,0,0,1,0-2H32A1,1,0,0,1,32,29Z"/><path class="cls-3" d="M32,34H12a1,1,0,0,1,0-2H32A1,1,0,0,1,32,34Z"/><path class="cls-3" d="M22,39H12a1,1,0,0,1,0-2H22A1,1,0,0,1,22,39Z"/><path d="M41,0H11a1,1,0,0,0-1,1V4H7A1,1,0,0,0,6,5V47a1,1,0,0,0,1,1H37a1,1,0,0,0,1-1V44h3a1,1,0,0,0,1-1V1A1,1,0,0,0,41,0ZM36,46H8V6H28v7a1,1,0,0,0,1,1h7ZM30,7.41,34.59,12H30ZM40,42H38c0-31,.14-29.28-.29-29.71C29.08,3.66,29.61,4,29.06,4,28.76,4,27,4,12,4V2H40Z"/><path d="M32,22H12a1,1,0,0,0,0,2H32A1,1,0,0,0,32,22Z"/><path d="M32,17H12a1,1,0,0,0,0,2H32A1,1,0,0,0,32,17Z"/><path d="M32,27H12a1,1,0,0,0,0,2H32A1,1,0,0,0,32,27Z"/><path d="M32,32H12a1,1,0,0,0,0,2H32A1,1,0,0,0,32,32Z"/><path d="M22,37H12a1,1,0,0,0,0,2H22A1,1,0,0,0,22,37Z"/></g></svg>