<svg xmlns="http://www.w3.org/2000/svg" viewBox="0 0 48 48"><defs><style>.cls-1{fill:#2c435e;}.cls-2{fill:#374f68;}.cls-3{fill:#dad7e5;}.cls-4{fill:#425b72;}</style></defs><title>paper clip</title><g id="paper_clip" data-name="paper clip"><path class="cls-1" d="M43.66,25.3,41,43l-8,4H15L7,43,4.34,25.3a2,2,0,0,1,2-2.3H41.68A2,2,0,0,1,43.66,25.3Z"/><path class="cls-2" d="M43.66,25.3,41.3,41H32a1,1,0,0,0-1,1v3H19a2,2,0,0,1-2-2V42a1,1,0,0,0-1-1H10.57a2,2,0,0,1-2-1.7C6.16,23.13,6.09,23.84,6.6,23H41.68A2,2,0,0,1,43.66,25.3Z"/><path class="cls-3" d="M33,46a21.87,21.87,0,0,1-2.83-.68,3,3,0,0,1-2.26-2.71L26.15,15.37C25.81,10.06,32,10.58,32,6.86V3a1,1,0,0,0-1-1H17a1,1,0,0,0-1,1V6.86c0,3.9,6.2,3,5.85,8.51L20.09,42.61a3,3,0,0,1-2.26,2.71L15.24,46A1,1,0,0,1,14.76,44c2.58-.65,3.28-.62,3.34-1.55l1.75-27.24C20.1,11.36,14,12.05,14,6.86V3a3,3,0,0,1,3-3H31a3,3,0,0,1,3,3c0,3.35.52,6.19-2.23,8-1.92,1.28-3.76,2.05-3.62,4.22L29.9,42.48c.06.93.75.9,3.34,1.55A1,1,0,0,1,33,46Z"/><rect class="cls-2" x="5" y="43" width="10" height="4"/><path class="cls-4" d="M15,43v2H9a2,2,0,0,1-2-2Z"/><rect class="cls-2" x="33" y="43" width="10" height="4" transform="translate(76 90) rotate(-180)"/><path class="cls-4" d="M43,43v2H37a2,2,0,0,1-2-2Z"/><path d="M41.68,22H28.58l-.43-6.76a3,3,0,0,1,1.33-2.69C34.52,9.19,34,9.23,34,3a3,3,0,0,0-3-3H17a3,3,0,0,0-3,3V6.86c0,5.09,6.1,4.6,5.85,8.38L19.42,22c-14.2,0-14.18-.35-15.37,1a3,3,0,0,0-.69,2.41L5.84,42H5a1,1,0,0,0-1,1v4a1,1,0,0,0,1,1H43a1,1,0,0,0,1-1V43a1,1,0,0,0-1-1h-.84l2.48-16.56A3,3,0,0,0,41.68,22Zm-22-11.11C15.46,8.11,16,8.91,16,3a1,1,0,0,1,1-1H31a1,1,0,0,1,1,1V6.86c0,3.9-6.2,3-5.85,8.51L26.58,22H21.42l.43-6.63A5,5,0,0,0,19.63,10.89Zm8.28,31.72a3,3,0,0,0,2.26,2.71C34,46.29,33.24,46,16,46c0-.31-.27-.15,1.83-.68a3,3,0,0,0,2.26-2.71L21.29,24h5.42ZM5.33,25.15a1,1,0,0,1,1-1.15h13L18.1,42.48c-.06.83-.66.88-2.1,1.24V43a1,1,0,0,0-1-1H7.86ZM6,44h8v2H6Zm36,2H34V44h8Zm-1.86-4H33a1,1,0,0,0-1,1v.72c-1.12-.28-2-.31-2.1-1.24L28.71,24c14,0,13.3-.15,13.72.35S42.88,23.72,40.14,42Z"/></g></svg>