<svg xmlns="http://www.w3.org/2000/svg" viewBox="0 0 48 48"><defs><style>.cls-1{fill:#374f68;}.cls-2{fill:#425b72;}.cls-3{fill:#dad7e5;}.cls-4{fill:#edebf2;}</style></defs><title>pen</title><g id="pen"><path class="cls-1" d="M37.63,17C16.59,38.07,23,31.63,11,43.66L4.33,37C5.78,35.55,11.81,29.53,31,10.36Z"/><path class="cls-2" d="M36.63,16c-19.7,19.72-16.36,16.38-20,20A8,8,0,0,1,5.33,36C17,24.35,11.06,30.29,31,10.36Z"/><rect class="cls-1" x="32.61" y="7.31" width="6.71" height="9.42" transform="translate(2.03 28.95) rotate(-45)"/><path class="cls-3" d="M11,43.66,1,47,4.33,37Z"/><polygon class="cls-4" points="9.49 42.16 1.76 44.75 4.33 37 9.49 42.16"/><rect class="cls-3" x="16.66" y="25.64" width="1.99" height="9.42" transform="translate(-16.29 21.37) rotate(-45)"/><path class="cls-3" d="M17.65,18a1,1,0,0,1-.71-1.71L28.6,4.66A1,1,0,0,1,30,6.07C17.37,18.72,18.24,18,17.65,18Z"/><path class="cls-1" d="M47,4.53c0,2-1.34,2.81-3.53,5l-5-5L41,2A3.54,3.54,0,0,1,47,4.53Z"/><path class="cls-2" d="M46.84,3.52A3.35,3.35,0,0,1,46,5a3.54,3.54,0,0,1-5,0l-1.5-1.5L41,2A3.54,3.54,0,0,1,46.84,3.52Z"/><path class="cls-1" d="M43.46,11.19,41,13.69,34.3,7l2.5-2.5a1.17,1.17,0,0,1,1.66,0l5,5A1.17,1.17,0,0,1,43.46,11.19Z"/><path class="cls-2" d="M43.29,9.36a3.29,3.29,0,0,1-4.66,0L35.3,6l1.5-1.5a1.17,1.17,0,0,1,1.66,0Z"/><path class="cls-3" d="M41.67,13l-4.75,4.75-10-10a1,1,0,0,1,0-1.42L28.6,4.66a3.42,3.42,0,0,1,4.74,0Z"/><path class="cls-4" d="M40.67,12a5.31,5.31,0,0,1-7.5,0L27.22,6,28.6,4.66a3.42,3.42,0,0,1,4.74,0Z"/><rect class="cls-4" x="16.16" y="25.84" width="1.99" height="8" transform="translate(-16.08 20.87) rotate(-45)"/><path d="M46.66,1.33a4.53,4.53,0,0,0-6.41,0l-2,2c-1.59-.5-2.33.67-4,2.32l-1-1a3.42,3.42,0,0,0-4.74,0L16.94,16.31A1,1,0,0,0,17.65,18c.59,0-.09.5,10-9.58l1.92,1.92C2.1,37.82,3.5,36.34,3.38,36.69-.25,47.61-.29,47.11.3,47.71a1,1,0,0,0,1,.24c10.78-3.61,10.09-3.33,10.34-3.56.88-.82,12.39-12.38,32.5-32.49a2.16,2.16,0,0,0,.52-2.19l2-2A4.53,4.53,0,0,0,46.66,1.33ZM30,6.07a1.4,1.4,0,0,1,1.92,0l7.62,7.62-1.92,1.92L29.05,7Zm6.21,11L21,32.26,15.73,27,31,11.77ZM11,42.25,5.74,37l8.58-8.58,5.25,5.25Zm-6.22-3.4,4.37,4.37-6.55,2.2Zm38-28.37L41,12.28,35.71,7c1.83-1.82,1.87-2,2-1.79C43.13,10.61,42.93,10.3,42.75,10.48Zm2.5-4.16L43.46,8.11c-2.2-2.19-1.38-1.38-3.58-3.58l1.79-1.79a2.53,2.53,0,0,1,3.58,3.58Z"/></g></svg>