<svg xmlns="http://www.w3.org/2000/svg" viewBox="0 0 48 48"><defs><style>.cls-1{fill:#425b72;}.cls-2{fill:#a87e6b;}.cls-3{fill:#be927c;}.cls-4{fill:#fc6;}.cls-5{fill:#ffde76;}.cls-6{fill:#a07765;}</style></defs><title>Brief Case</title><g id="Brief_Case" data-name="Brief Case"><path class="cls-1" d="M31,10V7a2,2,0,0,0-2-2H19a2,2,0,0,0-2,2v3a1,1,0,0,1-2,0V7a4,4,0,0,1,4-4H29a4,4,0,0,1,4,4v3A1,1,0,0,1,31,10Z"/><path class="cls-2" d="M45,23.29c0,19.06.06,17.94-.13,18.58A3,3,0,0,1,42,44H6a3,3,0,0,1-3-3V23.29Z"/><path class="cls-3" d="M45,23.29c0,19.06.06,17.94-.13,18.58-.69.2-28,.13-27.87.13A12,12,0,0,1,5,30V23.29Z"/><path class="cls-2" d="M47,13c0,4.7.37,7-1.44,9.56A8,8,0,0,1,39,26H9a8,8,0,0,1-8-8V13a3,3,0,0,1,3-3H44A3,3,0,0,1,47,13Z"/><path class="cls-3" d="M47,13c0,4.7.37,7-1.44,9.56A7.87,7.87,0,0,1,41,24H11a8,8,0,0,1-8-8c0-5.32,0-5.27.13-5.87C3.77,9.94,1,10,44,10A3,3,0,0,1,47,13Z"/><path class="cls-4" d="M27,23v9l-3,2-3-2V23Z"/><polygon class="cls-5" points="27 23 27 32 25.75 32.83 23 31 23 23 27 23"/><rect class="cls-4" x="19" y="19" width="10" height="4" rx="1"/><path class="cls-5" d="M29,20v1H22a1,1,0,0,1-1-1V19h7A1,1,0,0,1,29,20Z"/><path class="cls-6" d="M28,30H20a1,1,0,0,1,0-2h8A1,1,0,0,1,28,30Z"/><path d="M48,13a4,4,0,0,0-4-4H33V7a4,4,0,0,0-4-4H19a4,4,0,0,0-4,4V9H4a4,4,0,0,0-4,4c0,4.57-.49,7.57,2,10.64V41a4,4,0,0,0,4,4H42a4,4,0,0,0,4-4V23.64C48.43,20.64,48,18.1,48,13ZM17,7a2,2,0,0,1,2-2H29a2,2,0,0,1,2,2V9H17ZM42,43H6a2,2,0,0,1-2-2V25.48C6.88,27.41,8.36,27,20,27v1a1,1,0,0,0,0,2c0,2-.13,2.45.45,2.83C23.7,35,23.59,35,24,35s.27,0,3.55-2.17c.57-.37.45-.73.45-2.83a1,1,0,0,0,0-2V27c11.21,0,13,.49,16-1.52V41A2,2,0,0,1,42,43ZM20,22V20h8v2Zm6,2v4H22V24Zm-4,6h4v1.46L24,32.8l-2-1.34ZM46,18a7,7,0,0,1-7,7H28V24a2,2,0,0,0,2-2V20a2,2,0,0,0-2-2H20a2,2,0,0,0-2,2v2a2,2,0,0,0,2,2v1H9a7,7,0,0,1-7-7V13a2,2,0,0,1,2-2H44a2,2,0,0,1,2,2Z"/></g></svg>