<svg xmlns="http://www.w3.org/2000/svg" viewBox="0 0 48 48"><defs><style>.cls-1{fill:#fc6;}.cls-2{fill:#ffde76;}.cls-3{fill:#6fabe6;}.cls-4{fill:#82bcf4;}.cls-5{fill:#374f68;}.cls-6{fill:#425b72;}.cls-7{fill:#dad7e5;}.cls-8{fill:#edebf2;}.cls-9{fill:#5b9ad8;}</style></defs><title>tape</title><g id="tape"><path class="cls-1" d="M25,20A12,12,0,0,1,13,32C1.62,32-3.32,17.61,5.57,10.57A12,12,0,0,1,25,20Z"/><path class="cls-2" d="M25,20a12,12,0,0,1-2.57,7.43A12,12,0,0,1,5.57,10.57,12,12,0,0,1,25,20Z"/><path class="cls-3" d="M45,32v4H6V20H9a4,4,0,0,1,8,0h3v2A10,10,0,0,0,30,32Z"/><path class="cls-4" d="M45,32v2H14a6,6,0,0,1-6-6V20H9a4,4,0,0,1,1.18-2.82A4,4,0,0,1,17,20h3v2A10,10,0,0,0,30,32Z"/><rect class="cls-5" x="4" y="36" width="43" height="4"/><path class="cls-6" d="M47,36v2H8a2,2,0,0,1-2-2Z"/><path class="cls-7" d="M42,30v2H38c0-1.75-.26-3,1-3.73A2,2,0,0,1,42,30Z"/><path class="cls-8" d="M42,30v1a2.75,2.75,0,0,1-3-2.73A2,2,0,0,1,42,30Z"/><path class="cls-9" d="M13,21a1,1,0,1,1,.92-1.38A1,1,0,0,1,13,21Z"/><path d="M47,35H46V32a1,1,0,0,0-1-1H43V30a3,3,0,0,0-2.57-3c-20.08-17.82-17.78-15.79-18-16C14.37,2.58,0,8.25,0,20A13,13,0,0,0,5,30.22V35H4a1,1,0,0,0-1,1v4a1,1,0,0,0,1,1H47a1,1,0,0,0,1-1V36A1,1,0,0,0,47,35Zm-6-4H39V30a1,1,0,0,1,2,0Zm-2.87-3.33C36.87,28.69,37,29.9,37,31H30a9,9,0,0,1-6.73-3,12.93,12.93,0,0,0,2.23-11.5ZM13,9a11,11,0,0,1,9.06,17.23C19.88,22.17,22.09,19,20,19H17.9c-1.07-5.27-8.72-5.31-9.8,0H6a1,1,0,0,0-1,1v7.52A11,11,0,0,1,13,9ZM7,21H9a1,1,0,0,0,1-1,3,3,0,0,1,5.12-2.11A2.93,2.93,0,0,1,16,20a1,1,0,0,0,1,1h2v1A11,11,0,0,0,30,33H44v2H7ZM46,39H5V37H46Z"/><path d="M13.71,19.29a1,1,0,1,0,0,1.42A1,1,0,0,0,13.71,19.29Z"/></g></svg>