<svg xmlns="http://www.w3.org/2000/svg" viewBox="0 0 48 48"><defs><style>.cls-1{fill:#fc6;}.cls-2{fill:#ffde76;}.cls-3{fill:#9dcc6b;}.cls-4{fill:#b5e08c;}.cls-5{fill:#6fabe6;}.cls-6{fill:#82bcf4;}.cls-7{fill:#df8761;}.cls-8{fill:#f29b75;}.cls-9{fill:#db5669;}.cls-10{fill:#f26674;}</style></defs><title>crayon</title><g id="crayon"><path class="cls-1" d="M24,8H16a5.69,5.69,0,0,1,.38-2.8c1.14-2.45,1.43-3.74,3-4.11a2.59,2.59,0,0,1,3,1.42C24.11,6.24,24,5.67,24,8Z"/><path class="cls-2" d="M23.89,6H19.08A1.08,1.08,0,0,1,18,4.92c0-1.17.41-1.78,1.36-3.83,2.52-.72,3.36,2.18,4.26,4.11A3.43,3.43,0,0,1,23.89,6Z"/><rect class="cls-1" x="16" y="8" width="8" height="5"/><path class="cls-2" d="M24,8v3H21a3,3,0,0,1-3-3Z"/><path class="cls-3" d="M32,8H24a5.69,5.69,0,0,1,.38-2.8c1.14-2.45,1.43-3.74,3-4.11a2.59,2.59,0,0,1,3,1.42C32.11,6.24,32,5.67,32,8Z"/><path class="cls-4" d="M31.89,6H27.08A1.08,1.08,0,0,1,26,4.92c0-1.17.41-1.78,1.36-3.83,2.52-.72,3.36,2.18,4.26,4.11A3.43,3.43,0,0,1,31.89,6Z"/><rect class="cls-3" x="24" y="8" width="8" height="5"/><path class="cls-4" d="M32,8v3H29a3,3,0,0,1-3-3Z"/><path class="cls-5" d="M40,8H32a5.69,5.69,0,0,1,.38-2.8c1.14-2.45,1.43-3.74,3-4.11a2.59,2.59,0,0,1,3,1.42C40.11,6.24,40,5.67,40,8Z"/><path class="cls-6" d="M39.89,6H35.08A1.08,1.08,0,0,1,34,4.92c0-1.17.41-1.78,1.36-3.83,2.52-.72,3.36,2.18,4.26,4.11A3.43,3.43,0,0,1,39.89,6Z"/><rect class="cls-5" x="32" y="8" width="8" height="5"/><path class="cls-6" d="M40,8v3H37a3,3,0,0,1-3-3Z"/><rect class="cls-7" x="5" y="13" width="38" height="34"/><path class="cls-8" d="M43,13V45H19A12,12,0,0,1,7,33V13Z"/><path class="cls-9" d="M16,8H8a5.69,5.69,0,0,1,.38-2.8c1.14-2.45,1.43-3.74,3-4.11a2.59,2.59,0,0,1,3,1.42C16.11,6.24,16,5.67,16,8Z"/><path class="cls-10" d="M15.89,6H11.08A1.08,1.08,0,0,1,10,4.92c0-1.17.41-1.78,1.36-3.83,2.52-.72,3.36,2.18,4.26,4.11A3.43,3.43,0,0,1,15.89,6Z"/><rect class="cls-9" x="8" y="8" width="8" height="5"/><path class="cls-10" d="M16,8v3H13a3,3,0,0,1-3-3Z"/><path class="cls-9" d="M16,19v6H13a2,2,0,0,1-2-2V21a2,2,0,0,1,2-2Z"/><rect class="cls-1" x="16" y="19" width="8" height="6"/><rect class="cls-3" x="24" y="19" width="8" height="6"/><path class="cls-5" d="M37,21v2a2,2,0,0,1-2,2H32V19h3A2,2,0,0,1,37,21Z"/><path class="cls-10" d="M16,19v4H15a2,2,0,0,1-2-2V19Z"/><rect class="cls-2" x="16" y="19" width="8" height="4"/><rect class="cls-4" x="24" y="19" width="8" height="4"/><path class="cls-6" d="M37,21v2H32V19h3A2,2,0,0,1,37,21Z"/><path d="M43,12H41c0-7.19.35-5.48-1.72-9.91a3.63,3.63,0,0,0-6.56,0L32,3.64l-.72-1.55a3.63,3.63,0,0,0-6.56,0L24,3.64l-.72-1.55a3.62,3.62,0,0,0-6.56,0L16,3.64l-.72-1.55a3.62,3.62,0,0,0-6.56,0C6.65,6.53,7,4.86,7,12H5a1,1,0,0,0-1,1V47a1,1,0,0,0,1,1H43a1,1,0,0,0,1-1V13A1,1,0,0,0,43,12ZM25,12V9h6v3Zm-8,0V9h6v3ZM33,9h6v3H33Zm1.54-6.07a1.62,1.62,0,0,1,2.93,0C38.84,5.88,39,6,39,7c-6.66,0-6,0-6-.11C33,6,33.24,5.72,34.54,2.93Zm-8,0a1.62,1.62,0,0,1,2.93,0C30.84,5.88,31,6,31,7c-6.66,0-6,0-6-.11C25,6,25.25,5.68,26.54,2.93Zm-8,0a1.62,1.62,0,0,1,2.93,0C22.81,5.82,23,6,23,7c-6.66,0-6,0-6-.11C17,6,17.24,5.7,18.54,2.93Zm-8,0a1.62,1.62,0,0,1,2.93,0C14.84,5.88,15,6,15,7c-6.66,0-6,0-6-.11C9,6,9.25,5.69,10.53,2.93ZM9,9h6v3H9ZM42,46H6V14H42Z"/><path d="M35,18H13a3,3,0,0,0-3,3v2a3,3,0,0,0,3,3H35a3,3,0,0,0,3-3V21A3,3,0,0,0,35,18ZM25,20h6v4H25Zm-2,4H17V20h6ZM12,23V21a1,1,0,0,1,1-1h2v4H13A1,1,0,0,1,12,23Zm24,0a1,1,0,0,1-1,1H33V20h2a1,1,0,0,1,1,1Z"/></g></svg>