<svg xmlns="http://www.w3.org/2000/svg" viewBox="0 0 48 48"><defs><style>.cls-1{fill:#dad7e5;}.cls-2{fill:#edebf2;}.cls-3{fill:#919191;}.cls-4{fill:#c6c3d8;}.cls-5{fill:#db5669;}.cls-6{fill:#f26674;}</style></defs><title>postcard</title><g id="postcard"><rect class="cls-1" x="1" y="8" width="46" height="32"/><path class="cls-2" d="M47,8V38H7a4,4,0,0,1-4-4V8Z"/><path class="cls-3" d="M23,36V12a1,1,0,0,1,2,0V36A1,1,0,0,1,23,36Z"/><path class="cls-4" d="M36,19H28a1,1,0,0,1,0-2h8A1,1,0,0,1,36,19Z"/><path class="cls-4" d="M43,23H28a1,1,0,0,1,0-2H43A1,1,0,0,1,43,23Z"/><path class="cls-4" d="M43,27H28a1,1,0,0,1,0-2H43A1,1,0,0,1,43,27Z"/><path class="cls-4" d="M43,31H35a1,1,0,0,1,0-2h8A1,1,0,0,1,43,31Z"/><rect class="cls-5" x="5" y="12" width="6" height="8"/><path class="cls-6" d="M11,12v6a4,4,0,0,1-4-4V12Z"/><path class="cls-4" d="M15,37H5a1,1,0,0,1,0-2H15A1,1,0,0,1,15,37Z"/><path class="cls-4" d="M11,33H5a1,1,0,0,1,0-2h6A1,1,0,0,1,11,33Z"/><path d="M47,7H1A1,1,0,0,0,0,8V40a1,1,0,0,0,1,1H47a1,1,0,0,0,1-1V8A1,1,0,0,0,47,7ZM46,39H2V9H46Z"/><path d="M25,36V12a1,1,0,0,0-2,0V36A1,1,0,0,0,25,36Z"/><path d="M28,19h8a1,1,0,0,0,0-2H28A1,1,0,0,0,28,19Z"/><path d="M28,23H43a1,1,0,0,0,0-2H28A1,1,0,0,0,28,23Z"/><path d="M28,27H43a1,1,0,0,0,0-2H28A1,1,0,0,0,28,27Z"/><path d="M43,29H35a1,1,0,0,0,0,2h8A1,1,0,0,0,43,29Z"/><path d="M5,21h6a1,1,0,0,0,1-1V12a1,1,0,0,0-1-1H5a1,1,0,0,0-1,1v8A1,1,0,0,0,5,21Zm1-8h4v6H6Z"/><path d="M5,37H15a1,1,0,0,0,0-2H5A1,1,0,0,0,5,37Z"/><path d="M5,33h6a1,1,0,0,0,0-2H5A1,1,0,0,0,5,33Z"/></g></svg>