<svg xmlns="http://www.w3.org/2000/svg" viewBox="0 0 48 48"><defs><style>.cls-1{fill:#dad7e5;}.cls-2{fill:#edebf2;}.cls-3{fill:#fc6;}.cls-4{fill:#ffde76;}.cls-5{fill:#db5669;}.cls-6{fill:#f26674;}.cls-7{fill:#f6ccaf;}.cls-8{fill:#ffdec7;}.cls-9{fill:#c6c3d8;}</style></defs><title>pencil case</title><g id="pencil_case" data-name="pencil case"><path class="cls-1" d="M47,26c0,15.22.06,14.24-.13,14.87A3,3,0,0,1,44,43H4a3,3,0,0,1-3-3V26a3,3,0,0,1,3-3H44A3,3,0,0,1,47,26Z"/><path class="cls-2" d="M47,26c0,15.22.06,14.24-.13,14.87-.68.2-40,.13-39.87.13a4,4,0,0,1-4-4c0-14.13,0-13.25.13-13.87.68-.2,41-.13,40.87-.13A3,3,0,0,1,47,26Z"/><path class="cls-3" d="M37,35v4H12.46a4,4,0,0,0,0-4Z"/><path class="cls-4" d="M37,35v2H16.43a2,2,0,0,1-2-2Z"/><path class="cls-5" d="M41,36v2a1,1,0,0,1-1,1H37V35h3A1,1,0,0,1,41,36Z"/><path class="cls-6" d="M41,36v1H40a2,2,0,0,1-2-2h2A1,1,0,0,1,41,36Z"/><path class="cls-7" d="M12.46,39c-.64,0,.24.28-5.46-2,5.74-2.3,4.82-2,5.46-2A4,4,0,0,1,12.46,39Z"/><path class="cls-8" d="M13,37c-1.33,0-.5.2-3.5-1,2.9-1.16,2.35-1,3-1A4,4,0,0,1,13,37Z"/><path class="cls-3" d="M37,27v4H12.46a4,4,0,0,0,0-4Z"/><path class="cls-4" d="M37,27v2H16.43a2,2,0,0,1-2-2Z"/><path class="cls-5" d="M41,28v2a1,1,0,0,1-1,1H37V27h3A1,1,0,0,1,41,28Z"/><path class="cls-6" d="M41,28v1H40a2,2,0,0,1-2-2h2A1,1,0,0,1,41,28Z"/><path class="cls-9" d="M47,9v1H1V9A4,4,0,0,1,3.36,5.36C4.48,4.85,1.45,5,43,5A4,4,0,0,1,47,9Z"/><path class="cls-1" d="M46.87,8H4C2.76,8,2.85,6.48,3.36,5.36,4.48,4.85,1.45,5,43,5A4,4,0,0,1,46.87,8Z"/><path class="cls-1" d="M47,10c0,10.78.06,10.25-.13,10.87A3,3,0,0,1,44,23H4a3,3,0,0,1-3-3V10Z"/><path class="cls-2" d="M47,10c0,10.78.06,10.25-.13,10.87-.6.19,1.92.13-40.87.13a3,3,0,0,1-3-3V10Z"/><path class="cls-7" d="M12.46,31c-.64,0,.24.28-5.46-2,5.74-2.3,4.82-2,5.46-2A4,4,0,0,1,12.46,31Z"/><path class="cls-8" d="M13,29c-1.33,0-.5.2-3.5-1,2.9-1.16,2.35-1,3-1A4,4,0,0,1,13,29Z"/><path d="M43,4H5A5,5,0,0,0,0,9V20a4,4,0,0,0,1.38,3A4,4,0,0,0,0,26V40a4,4,0,0,0,4,4H44a4,4,0,0,0,4-4V26a4,4,0,0,0-1.38-3A4,4,0,0,0,48,20V9A5,5,0,0,0,43,4ZM5,6H43a3,3,0,0,1,3,3H2A3,3,0,0,1,5,6ZM46,26V40a2,2,0,0,1-2,2H4a2,2,0,0,1-2-2V26a2,2,0,0,1,2-2H44A2,2,0,0,1,46,26ZM4,22a2,2,0,0,1-2-2V11H46v9a2,2,0,0,1-2,2Z"/><path d="M6.63,29.93C12.07,32.1,11.73,32,12,32H40a2,2,0,0,0,2-2V28a2,2,0,0,0-2-2c-29.9,0-28.07-.05-28.37.07C6.39,28.17,6,28.1,6,29A1,1,0,0,0,6.63,29.93ZM40,30H38V28h2Zm-4,0H13.89a4.5,4.5,0,0,0,0-2H36ZM11.87,28.13a3,3,0,0,1,0,1.74L9.69,29Z"/><path d="M6.63,37.93C12.07,40.1,11.73,40,12,40H40a2,2,0,0,0,2-2V36a2,2,0,0,0-2-2c-29.9,0-28.07,0-28.37.07C6.39,36.17,6,36.1,6,37A1,1,0,0,0,6.63,37.93ZM40,38H38V36h2Zm-4,0H13.89a4.5,4.5,0,0,0,0-2H36ZM11.87,36.13a3,3,0,0,1,0,1.74L9.69,37Z"/></g></svg>